<?xml version="1.0" encoding="UTF-8"?>
<svg id="Layer_1" data-name="Layer 1" xmlns="http://www.w3.org/2000/svg" xmlns:xlink="http://www.w3.org/1999/xlink" viewBox="0 0 1080 1080">
  <defs>
    <style>
      .cls-1 {
        fill: url(#linear-gradient);
      }

      .cls-1, .cls-2, .cls-3, .cls-4, .cls-5, .cls-6, .cls-7, .cls-8, .cls-9, .cls-10 {
        stroke-width: 0px;
      }

      .cls-2 {
        fill: url(#linear-gradient-6);
      }

      .cls-3 {
        fill: url(#linear-gradient-5);
      }

      .cls-4 {
        fill: none;
      }

      .cls-5 {
        fill: #fff;
      }

      .cls-6 {
        fill: url(#linear-gradient-2);
      }

      .cls-7 {
        fill: url(#linear-gradient-7);
      }

      .cls-8 {
        fill: url(#linear-gradient-3);
      }

      .cls-11 {
        clip-path: url(#clippath);
      }

      .cls-9 {
        fill: url(#linear-gradient-8);
      }

      .cls-10 {
        fill: url(#linear-gradient-4);
      }
    </style>
    <clipPath id="clippath">
      <rect class="cls-4" x="-1994.4" y="1131.43" width="1920" height="1080"/>
    </clipPath>
    <linearGradient id="linear-gradient" x1="-1123.86" y1="1010.8" x2="1238.8" y2="1010.8" gradientUnits="userSpaceOnUse">
      <stop offset=".15" stop-color="#006ffd"/>
      <stop offset=".29" stop-color="#006df8"/>
      <stop offset=".43" stop-color="#0068ec"/>
      <stop offset=".57" stop-color="#0060d8"/>
      <stop offset=".72" stop-color="#0055bc"/>
      <stop offset=".86" stop-color="#004698"/>
      <stop offset=".93" stop-color="#003f84"/>
    </linearGradient>
    <linearGradient id="linear-gradient-2" x1="-1210.99" y1="1500.81" x2="775.1" y2="1007.91" gradientUnits="userSpaceOnUse">
      <stop offset="0" stop-color="#003f84"/>
      <stop offset=".19" stop-color="#004ca6"/>
      <stop offset=".43" stop-color="#005bcb"/>
      <stop offset=".65" stop-color="#0066e6"/>
      <stop offset=".85" stop-color="#006cf7"/>
      <stop offset="1" stop-color="#006ffd"/>
    </linearGradient>
    <linearGradient id="linear-gradient-3" x1="-672.62" y1="-337.46" x2="140.74" y2="984.26" xlink:href="#linear-gradient-2"/>
    <linearGradient id="linear-gradient-4" x1="180.4" y1="540" x2="899.6" y2="540" gradientUnits="userSpaceOnUse">
      <stop offset="0" stop-color="#006ffd"/>
      <stop offset="1" stop-color="#0054b5"/>
    </linearGradient>
    <linearGradient id="linear-gradient-5" x1="291.04" y1="407.06" x2="886.97" y2="725.27" xlink:href="#linear-gradient-4"/>
    <linearGradient id="linear-gradient-6" x1="199.71" y1="766.48" x2="839.78" y2="766.48" gradientUnits="userSpaceOnUse">
      <stop offset="0" stop-color="#0054b5"/>
      <stop offset="1" stop-color="#006ffd"/>
    </linearGradient>
    <linearGradient id="linear-gradient-7" x1="180.4" y1="228.58" x2="899.6" y2="228.58" xlink:href="#linear-gradient-6"/>
    <linearGradient id="linear-gradient-8" x1="432.83" y1="532.7" x2="769.88" y2="532.7" gradientUnits="userSpaceOnUse">
      <stop offset=".02" stop-color="#00396d"/>
      <stop offset="1" stop-color="#0054b5"/>
    </linearGradient>
  </defs>
  <g class="cls-11">
    <g>
      <path class="cls-5" d="m384.19,1020.33l-1.75,15.69c-1.15,10.47-2.56,20.95-4.16,31.37-16.94,111-57.88,218.39-119.32,312.4-67.2,102.83-158.96,189.63-265.35,251.07l-68,39.29-68-39.29c-106.39-61.44-198.15-148.23-265.35-251.07-67.2-102.83-109.9-221.7-123.48-343.77,38.29,329.34,281.18,500.63,487.4,500.98,270.46.5,473.42-328.14,172.44-458.33,82.99-65.55,175.4-80.38,255.02-58.48.2.05.4.1.55.15Z"/>
      <path class="cls-5" d="m528.41,1483.72c-.05,0-.05.05-.05.05l-150.09-416.39v-.05l5.36-47.16c.2.05.4.1.55.15,159.71,44.3,267.65,236.38,144.23,463.4Z"/>
      <path class="cls-1" d="m577.62,1239.12c12.08,71.56-.7,155.4-49.21,244.6-.05,0-.05.05-.05.05-9.67,17.84-20.25,34.98-31.57,51.47-.05.15-.2.3-.35.5-90.65,138.56-213.43,256.08-360.76,341.17l-210.07,121.27-210.07-121.27c-295.07-170.38-491.51-470.91-529.09-809.58l-48.06-432.68L-74.4,23.43l787.22,611.23-299.93,126.84L-74.4,383.09l-487.3,378.4,30.47,274.52c38.29,329.34,281.18,500.63,487.4,500.98,270.46.5,473.42-328.14,172.44-458.33,82.99-65.55,175.4-80.38,255.02-58.48.2.05.4.1.55.15,96.97,26.91,174.79,108.24,193.44,218.79Z"/>
      <path class="cls-6" d="m528.41,1483.72c-.05,0-.05.05-.05.05-9.67,17.84-20.25,34.98-31.57,51.47-.05.15-.2.3-.35.5-90.65,138.56-213.43,256.08-360.76,341.17l-210.07,121.27-210.07-121.27c-295.07-170.38-491.51-470.91-529.09-809.58l-48.06-432.68,41.14,307.24c41.69,311.8,244.7,583.82,541.87,726.19l204.21,97.82,204.21-97.82c197.4-94.56,353.25-246.3,447.81-428.97,12.08,71.56-.7,155.4-49.21,244.6Z"/>
      <polygon class="cls-8" points="-861.62 634.66 -74.4 23.43 712.83 634.66 -74.4 190.56 -861.62 634.66"/>
    </g>
  </g>
  <g>
    <path class="cls-10" d="m837.84,644.29c5.52,32.69-.32,70.99-22.48,111.73-.02,0-.02.02-.02.02-4.42,8.15-9.25,15.98-14.42,23.51-.02.07-.09.14-.16.23-41.41,63.29-97.49,116.97-164.79,155.84l-95.96,55.4-95.96-55.4c-134.78-77.83-224.52-215.11-241.69-369.81l-21.95-197.64L540,88.97l359.6,279.2-137,57.94-222.59-172.85-222.59,172.85,13.92,125.4c17.49,150.44,128.44,228.68,222.64,228.84,123.54.23,216.25-149.89,78.77-209.36,37.91-29.94,80.12-36.72,116.49-26.71.09.02.18.05.25.07,44.29,12.29,79.84,49.45,88.36,99.94Z"/>
    <path class="cls-3" d="m838.57,649.14c4.17,31.6-2.14,68.14-23.21,106.89-.03,0-.03.01-.03.01-4.41,8.15-9.24,15.99-14.42,23.51-.03.07-.09.14-.16.24-41.41,63.29-97.49,116.97-164.79,155.84l-95.95,55.4-95.97-55.4c-134.78-77.83-224.51-215.11-241.68-369.81l-2.65-23.89-19.3-173.75L540,88.97l359.59,279.21-137,57.94-222.59-172.86-222.6,172.86,13.93,125.39c17.48,150.45,128.43,228.68,222.63,228.85,123.55.23,216.26-149.9,78.77-209.37,37.9-29.94,80.12-36.71,116.5-26.71.09.03.18.05.25.08,44.28,12.28,79.84,49.45,88.36,99.94.26,1.6.51,3.22.73,4.85Z"/>
    <path class="cls-2" d="m815.36,756.03s-.03.01-.03.01c-4.41,8.15-9.24,15.99-14.42,23.51-.03.07-.09.14-.16.24-41.41,63.29-97.49,116.97-164.79,155.84l-95.95,55.4-95.97-55.4c-134.78-77.83-224.51-215.11-241.68-369.81l-2.65-23.89c30.29,127.32,119.7,236.27,245.07,296.01l95.23,45.36,95.21-45.36c88.34-42.09,158.84-108.61,203.35-188.81,4.17,31.6-2.14,68.14-23.21,106.89Z"/>
    <polygon class="cls-7" points="180.4 368.18 540 88.97 899.6 368.18 540 172.19 180.4 368.18"/>
    <path class="cls-9" d="m556.05,580.73c56.19-77.09,148.12-89.94,213.82-54.9-77.27-92.9-240.27-106.22-314.54-24.81-68.09,74.63,33.81,171.49,100.72,79.71Z"/>
  </g>
</svg>